<svg id="Layer_1" xmlns="http://www.w3.org/2000/svg" viewBox="41 -5 224 60"><style>.st0{display:none}.st1{display:inline}.st2{stroke:#000;stroke-width:.75}.st2,.st3{fill:none;stroke-miterlimit:10}.st3{stroke:#010101;stroke-width:.3}.st4{stroke-width:.5}.st4,.st5{fill:none;stroke:#010101;stroke-miterlimit:10}.st5{stroke-width:.7}.st6{stroke-width:3}.st6,.st7{fill:none;stroke:#010101;stroke-miterlimit:10}.st7{stroke-width:1.5}.st8{font-family:&amp;apos;MyriadPro-Regular&amp;apos;}.st9{font-size:18px}.st10{fill:none;stroke:#010101;stroke-miterlimit:10}.st11{fill:#010101}.st12{font-size:20px}</style><g id="Layer_1_1_" class="st0"><g id="Ruler" class="st1"><text id="_x31__cm._label_no._1" transform="translate(100.347 116.844)" class="st11 st8" font-size="12">1</text><text id="_x31__cm._label_no._2" transform="translate(115.154 116.844)" class="st11 st8" font-size="12">2</text><text id="_x31__cm._label_no._3" transform="translate(130.46 116.844)" class="st11 st8" font-size="12">3</text><text id="_x31__cm._label_no._4" transform="translate(145.768 116.844)" class="st11 st8" font-size="12">4</text><text id="_x31__cm._label_no._5" transform="translate(161.076 116.844)" class="st11 st8" font-size="12">5</text><path class="st2" d="M91.5 90.9h153.1v42.5H91.5z"/><g id="_x31__x2F_10_cm_tick"><path id="_x31__x2F_10th_cm._Tick_no._1" class="st3" d="M93.1 91.4v11.5"/><path id="_x31__x2F_10th_cm._Tick_no._2" class="st3" d="M94.6 91.4v11.5"/><path id="_x31__x2F_10th_cm._Tick_no._3" class="st3" d="M96.1 91.4v11.5"/><path id="_x31__x2F_10th_cm._Tick_no._4" class="st3" d="M97.6 91.4v11.5"/><path id="_x31__x2F_10th_cm._Tick_no._6" class="st3" d="M100.7 91.4v11.5"/><path id="_x31__x2F_10th_cm._Tick_no._7" class="st3" d="M102.2 91.4v11.5"/><path id="_x31__x2F_10th_cm._Tick_no._8" class="st3" d="M103.7 91.4v11.5"/><path id="_x31__x2F_10th_cm._Tick_no._9" class="st3" d="M105.3 91.4v11.5"/><path id="_x31__x2F_10th_cm._Tick_no._11" class="st3" d="M108.4 91.4v11.5"/><path id="_x31__x2F_10th_cm._Tick_no._12" class="st3" d="M109.9 91.4v11.5"/><path id="_x31__x2F_10th_cm._Tick_no._13" class="st3" d="M111.4 91.4v11.5"/><path id="_x31__x2F_10th_cm._Tick_no._14" class="st3" d="M112.9 91.4v11.5"/><path id="_x31__x2F_10th_cm._Tick_no._16" class="st3" d="M116 91.4v11.5"/><path id="_x31__x2F_10th_cm._Tick_no._17" class="st3" d="M117.5 91.4v11.5"/><path id="_x31__x2F_10th_cm._Tick_no._18" class="st3" d="M119.1 91.4v11.5"/><path id="_x31__x2F_10th_cm._Tick_no._19" class="st3" d="M120.6 91.4v11.5"/><path id="_x31__x2F_10th_cm._Tick_no._21" class="st3" d="M123.7 91.4v11.5"/><path id="_x31__x2F_10th_cm._Tick_no._22" class="st3" d="M125.2 91.4v11.5"/><path id="_x31__x2F_10th_cm._Tick_no._23" class="st3" d="M126.7 91.4v11.5"/><path id="_x31__x2F_10th_cm._Tick_no._24" class="st3" d="M128.2 91.4v11.5"/><path id="_x31__x2F_10th_cm._Tick_no._26" class="st3" d="M131.3 91.4v11.5"/><path id="_x31__x2F_10th_cm._Tick_no._27" class="st3" d="M132.9 91.4v11.5"/><path id="_x31__x2F_10th_cm._Tick_no._28" class="st3" d="M134.4 91.4v11.5"/><path id="_x31__x2F_10th_cm._Tick_no._29" class="st3" d="M135.9 91.4v11.5"/><path id="_x31__x2F_10th_cm._Tick_no._31" class="st3" d="M138.9 91.4v11.5"/><path id="_x31__x2F_10th_cm._Tick_no._32" class="st3" d="M140.5 91.4v11.5"/><path id="_x31__x2F_10th_cm._Tick_no._33" class="st3" d="M142 91.4v11.5"/><path id="_x31__x2F_10th_cm._Tick_no._34" class="st3" d="M143.6 91.4v11.5"/><path id="_x31__x2F_10th_cm._Tick_no._36" class="st3" d="M146.6 91.4v11.5"/><path id="_x31__x2F_10th_cm._Tick_no._37" class="st3" d="M148.2 91.4v11.5"/><path id="_x31__x2F_10th_cm._Tick_no._38" class="st3" d="M149.7 91.4v11.5"/><path id="_x31__x2F_10th_cm._Tick_no._39" class="st3" d="M151.2 91.4v11.5"/><path id="_x31__x2F_10th_cm._Tick_no._41" class="st3" d="M154.2 91.4v11.5"/><path id="_x31__x2F_10th_cm._Tick_no._42" class="st3" d="M155.8 91.4v11.5"/><path id="_x31__x2F_10th_cm._Tick_no._43" class="st3" d="M157.3 91.4v11.5"/><path id="_x31__x2F_10th_cm._Tick_no._44" class="st3" d="M158.9 91.4v11.5"/><path id="_x31__x2F_10th_cm._Tick_no._46" class="st3" d="M161.9 91.4v11.5"/><path id="_x31__x2F_10th_cm._Tick_no._47" class="st3" d="M163.4 91.4v11.5"/><path id="_x31__x2F_10th_cm._Tick_no._48" class="st3" d="M164.9 91.4v11.5"/><path id="_x31__x2F_10th_cm._Tick_no._49" class="st3" d="M166.5 91.4v11.5"/><path id="_x31__x2F_10th_cm._Tick_no._11_1_" class="st3" d="M169.6 91.4v11.5"/><path id="_x31__x2F_10th_cm._Tick_no._12_1_" class="st3" d="M171.1 91.4v11.5"/><path id="_x31__x2F_10th_cm._Tick_no._13_1_" class="st3" d="M172.6 91.4v11.5"/><path id="_x31__x2F_10th_cm._Tick_no._14_1_" class="st3" d="M174.2 91.4v11.5"/><path id="_x31__x2F_10th_cm._Tick_no._16_1_" class="st3" d="M177.2 91.4v11.5"/><path id="_x31__x2F_10th_cm._Tick_no._17_1_" class="st3" d="M178.7 91.4v11.5"/><path id="_x31__x2F_10th_cm._Tick_no._18_1_" class="st3" d="M180.2 91.4v11.5"/><path id="_x31__x2F_10th_cm._Tick_no._19_1_" class="st3" d="M181.8 91.4v11.5"/><path id="_x31__x2F_10th_cm._Tick_no._21_1_" class="st3" d="M184.9 91.4v11.5"/><path id="_x31__x2F_10th_cm._Tick_no._22_1_" class="st3" d="M186.4 91.4v11.5"/><path id="_x31__x2F_10th_cm._Tick_no._23_1_" class="st3" d="M187.9 91.4v11.5"/><path id="_x31__x2F_10th_cm._Tick_no._24_1_" class="st3" d="M189.5 91.4v11.5"/><path id="_x31__x2F_10th_cm._Tick_no._26_1_" class="st3" d="M192.5 91.4v11.5"/><path id="_x31__x2F_10th_cm._Tick_no._27_1_" class="st3" d="M194.1 91.4v11.5"/><path id="_x31__x2F_10th_cm._Tick_no._28_1_" class="st3" d="M195.6 91.4v11.5"/><path id="_x31__x2F_10th_cm._Tick_no._29_1_" class="st3" d="M197.1 91.4v11.5"/><path id="_x31__x2F_10th_cm._Tick_no._31_1_" class="st3" d="M200.2 91.4v11.5"/><path id="_x31__x2F_10th_cm._Tick_no._32_1_" class="st3" d="M201.7 91.4v11.5"/><path id="_x31__x2F_10th_cm._Tick_no._33_1_" class="st3" d="M203.2 91.4v11.5"/><path id="_x31__x2F_10th_cm._Tick_no._34_1_" class="st3" d="M204.7 91.4v11.5"/><path id="_x31__x2F_10th_cm._Tick_no._36_1_" class="st3" d="M207.8 91.4v11.5"/><path id="_x31__x2F_10th_cm._Tick_no._37_1_" class="st3" d="M209.4 91.4v11.5"/><path id="_x31__x2F_10th_cm._Tick_no._38_1_" class="st3" d="M210.9 91.4v11.5"/><path id="_x31__x2F_10th_cm._Tick_no._39_1_" class="st3" d="M212.4 91.4v11.5"/><path id="_x31__x2F_10th_cm._Tick_no._41_1_" class="st3" d="M215.5 91.4v11.5"/><path id="_x31__x2F_10th_cm._Tick_no._42_1_" class="st3" d="M217 91.4v11.5"/><path id="_x31__x2F_10th_cm._Tick_no._43_1_" class="st3" d="M218.5 91.4v11.5"/><path id="_x31__x2F_10th_cm._Tick_no._44_1_" class="st3" d="M220.1 91.4v11.5"/><path id="_x31__x2F_10th_cm._Tick_no._46_1_" class="st3" d="M223.1 91.4v11.5"/><path id="_x31__x2F_10th_cm._Tick_no._47_1_" class="st3" d="M224.7 91.4v11.5"/><path id="_x31__x2F_10th_cm._Tick_no._48_1_" class="st3" d="M226.2 91.4v11.5"/><path id="_x31__x2F_10th_cm._Tick_no._49_1_" class="st3" d="M227.7 91.4v11.5"/><path id="_x31__x2F_10th_cm._Tick_no._21_2_" class="st3" d="M230.8 91.4v11.5"/><path id="_x31__x2F_10th_cm._Tick_no._22_2_" class="st3" d="M232.3 91.4v11.5"/><path id="_x31__x2F_10th_cm._Tick_no._23_2_" class="st3" d="M233.8 91.4v11.5"/><path id="_x31__x2F_10th_cm._Tick_no._24_2_" class="st3" d="M235.4 91.4v11.5"/><path id="_x31__x2F_10th_cm._Tick_no._26_2_" class="st3" d="M238.4 91.4v11.5"/><path id="_x31__x2F_10th_cm._Tick_no._27_2_" class="st3" d="M240 91.4v11.5"/><path id="_x31__x2F_10th_cm._Tick_no._28_2_" class="st3" d="M241.5 91.4v11.5"/><path id="_x31__x2F_10th_cm._Tick_no._29_2_" class="st3" d="M243 91.4v11.5"/></g><g id="_x31__x2F_2_cm_tick_2_"><path id="_x31__x2F_10th_cm._Tick_no._5" class="st4" d="M99.2 91.4v16.2"/><path id="_x31__x2F_10th_cm._Tick_no._15" class="st4" d="M114.4 91.4v16.2"/><path id="_x31__x2F_10th_cm._Tick_no._25" class="st4" d="M129.7 91.4v16.2"/><path id="_x31__x2F_10th_cm._Tick_no._35" class="st4" d="M145.1 91.4v16.2"/><path id="_x31__x2F_10th_cm._Tick_no._45" class="st4" d="M160.4 91.4v16.2"/><path id="_x31__x2F_10th_cm._Tick_no._15_1_" class="st4" d="M175.7 91.4v16.2"/><path id="_x31__x2F_10th_cm._Tick_no._25_1_" class="st4" d="M191 91.4v16.2"/><path id="_x31__x2F_10th_cm._Tick_no._35_1_" class="st4" d="M206.3 91.4v16.2"/><path id="_x31__x2F_10th_cm._Tick_no._45_1_" class="st4" d="M221.7 91.4v16.2"/><path id="_x31__x2F_10th_cm._Tick_no._15_2_" class="st4" d="M237 91.4v16.2"/></g><g id="_x31__cm_tick"><path id="_x31__cm._Tick_no._1" class="st5" d="M106.8 90.9v28.3"/><path id="_x31__cm._Tick_no._2" class="st5" d="M122.1 90.9v28.3"/><path id="_x31__cm._Tick_no._3" class="st5" d="M137.4 90.9v28.3"/><path id="_x31__cm._Tick_no._4" class="st5" d="M152.7 90.9v28.3"/><path id="_x31__cm._Tick_no._2_1_" class="st5" d="M168 90.9v28.3"/><path id="_x31__cm._Tick_no._3_1_" class="st5" d="M183.3 90.9v28.3"/><path id="_x31__cm._Tick_no._4_1_" class="st5" d="M198.7 90.9v28.3"/><path id="_x31__cm._Tick_no._2_2_" class="st5" d="M214 90.9v28.3"/><path id="_x31__cm._Tick_no._3_2_" class="st5" d="M229.3 90.9v28.3"/></g><text id="_x31__cm._label_no._1_1_" transform="translate(175.986 116.844)" class="st11 st8" font-size="12">6</text><text id="_x31__cm._label_no._2_1_" transform="translate(191.793 116.844)" class="st11 st8" font-size="12">7</text><text id="_x31__cm._label_no._3_1_" transform="translate(207.1 116.844)" class="st11 st8" font-size="12">8</text><text id="_x31__cm._label_no._4_1_" transform="translate(222.407 116.844)" class="st11 st8" font-size="12">9</text><text id="_x31__cm._label_no._5_1_" transform="translate(231.715 116.844)" class="st11 st8" font-size="12">10</text></g></g><g id="Layer_2"><path class="st6" d="M41-5h224v60H41z"/><path id="_x31__cm._Tick_no._2_5_" class="st7" d="M55-5v17"/><path id="_x31__cm._Tick_no._4_3_" class="st7" d="M83-5v17"/><path id="_x31__cm._Tick_no._3_4_" class="st7" d="M111-5v17"/><path id="_x31__cm._Tick_no._2_3_" class="st7" d="M139-5v17"/><path id="_x31__cm._Tick_no._1_2_" class="st7" d="M167-5v17"/><path id="_x31__cm._Tick_no._3_8_" class="st7" d="M195-5v17"/><path id="_x31__cm._Tick_no._2_7_" class="st7" d="M223-5v17"/><path id="_x31__cm._Tick_no._2_6_" class="st7" d="M251-5v17"/><path id="_x31__cm._Tick_no._3_5_" class="st7" d="M69-5v22.7"/><path id="_x31__cm._Tick_no._2_4_" class="st7" d="M97-5v22.7"/><path id="_x31__cm._Tick_no._4_2_" class="st7" d="M125-5v22.7"/><path id="_x31__cm._Tick_no._3_3_" class="st7" d="M153-5v22.7"/><path id="_x31__cm._Tick_no._2_8_" class="st7" d="M181-5v22.7"/><path id="_x31__cm._Tick_no._4_5_" class="st7" d="M209-5v22.7"/><path id="_x31__cm._Tick_no._3_7_" class="st7" d="M237-5v22.7"/><text transform="translate(108.37 50.753)" class="st8 st9">centimeters</text><g><path id="_x31__x2F_10th_cm._Tick_no._5_1_" class="st10" d="M48-5V6.4"/><path id="_x31__x2F_10th_cm._Tick_no._15_5_" class="st10" d="M62-5V6.4"/><path id="_x31__x2F_10th_cm._Tick_no._25_3_" class="st10" d="M76-5V6.4"/><path id="_x31__x2F_10th_cm._Tick_no._35_3_" class="st10" d="M90-5V6.4"/><path id="_x31__x2F_10th_cm._Tick_no._45_3_" class="st10" d="M104-5V6.4"/><path id="_x31__x2F_10th_cm._Tick_no._15_4_" class="st10" d="M118-5V6.4"/><path id="_x31__x2F_10th_cm._Tick_no._25_2_" class="st10" d="M132-5V6.4"/><path id="_x31__x2F_10th_cm._Tick_no._35_2_" class="st10" d="M146-5V6.4"/><path id="_x31__x2F_10th_cm._Tick_no._45_2_" class="st10" d="M160-5V6.4"/><path id="_x31__x2F_10th_cm._Tick_no._15_3_" class="st10" d="M174-5V6.4"/><path id="_x31__x2F_10th_cm._Tick_no._15_8_" class="st10" d="M188-5V6.4"/><path id="_x31__x2F_10th_cm._Tick_no._25_5_" class="st10" d="M202-5V6.4"/><path id="_x31__x2F_10th_cm._Tick_no._35_5_" class="st10" d="M216-5V6.4"/><path id="_x31__x2F_10th_cm._Tick_no._45_5_" class="st10" d="M230-5V6.4"/><path id="_x31__x2F_10th_cm._Tick_no._15_7_" class="st10" d="M244-5V6.4"/><path id="_x31__x2F_10th_cm._Tick_no._15_6_" class="st10" d="M258-5V6.4"/></g><text id="_x31__cm._label_no._2_3_" transform="translate(63.87 33.342)" class="st11 st8 st12">2</text><text id="_x31__cm._label_no._4_3_" transform="translate(91.87 33.342)" class="st11 st8 st12">4</text><text id="_x31__cm._label_no._1_3_" transform="translate(119.87 33.342)" class="st11 st8 st12">6</text><text id="_x31__cm._label_no._3_2_" transform="translate(147.87 33.342)" class="st11 st8 st12">8</text><text id="_x31__cm._label_no._5_2_" transform="translate(170.74 33.342)" class="st11 st8 st12">10</text><text id="_x31__cm._label_no._5_5_" transform="translate(198.74 33.343)" class="st11 st8 st12">12</text><text id="_x31__cm._label_no._5_7_" transform="translate(226.74 33.343)" class="st11 st8 st12">14</text></g></svg>