<svg id="Layer_1" xmlns="http://www.w3.org/2000/svg" viewBox="0 0 154.1 54.9"><style>.st0{fill:#010101}.st1{font-family:&amp;apos;MyriadPro-Regular&amp;apos;}.st2{font-size:12px}.st3{stroke:#010101;stroke-width:.9}.st3,.st4{fill:none;stroke-miterlimit:10}.st4{stroke-width:.6}.st4,.st5{stroke:#010101}.st5{stroke-width:.4}.st5,.st6{fill:none;stroke-miterlimit:10}.st6{stroke:#000;stroke-width:.75}</style><g id="Ruler"><text id="_x31__cm._label_no._1" transform="translate(24.194 40.342)" class="st0 st1 st2">1</text><text id="_x31__cm._label_no._2" transform="translate(53.808 40.342)" class="st0 st1 st2">2</text><text id="_x31__cm._label_no._3" transform="translate(84.422 40.342)" class="st0 st1 st2">3</text><text id="_x31__cm._label_no._4" transform="translate(115.037 40.342)" class="st0 st1 st2">4</text><text id="_x31__cm._label_no._5" transform="translate(145.65 40.342)" class="st0 st1 st2">5</text><g id="_x31__cm_tick"><path id="_x31__cm._Tick_no._1" class="st3" d="M31.1.5v40"/><path id="_x31__cm._Tick_no._2" class="st3" d="M61.7.5v40"/><path id="_x31__cm._Tick_no._3" class="st3" d="M92.3.5v40"/><path id="_x31__cm._Tick_no._4" class="st3" d="M123 .5v40"/></g><g id="_x31__x2F_2_cm_tick"><path id="_x31__x2F_10th_cm._Tick_no._5" class="st4" d="M15.8.5v32.4"/><path id="_x31__x2F_10th_cm._Tick_no._15" class="st4" d="M46.4.5v32.4"/><path id="_x31__x2F_10th_cm._Tick_no._25" class="st4" d="M77 .5v32.4"/><path id="_x31__x2F_10th_cm._Tick_no._35" class="st4" d="M107.6.5v32.4"/><path id="_x31__x2F_10th_cm._Tick_no._45" class="st4" d="M138.3.5v32.4"/></g><g id="_x31__x2F_10th_cm_tick"><path id="_x31__x2F_10th_cm._Tick_no._1" class="st5" d="M3.6.5v23"/><path id="_x31__x2F_10th_cm._Tick_no._2" class="st5" d="M6.6.5v23"/><path id="_x31__x2F_10th_cm._Tick_no._3" class="st5" d="M9.7.5v23"/><path id="_x31__x2F_10th_cm._Tick_no._4" class="st5" d="M12.7.5v23"/><path id="_x31__x2F_10th_cm._Tick_no._6" class="st5" d="M18.9.5v23"/><path id="_x31__x2F_10th_cm._Tick_no._7" class="st5" d="M21.9.5v23"/><path id="_x31__x2F_10th_cm._Tick_no._8" class="st5" d="M25 .5v23"/><path id="_x31__x2F_10th_cm._Tick_no._9" class="st5" d="M28.1.5v23"/><path id="_x31__x2F_10th_cm._Tick_no._11" class="st5" d="M34.2.5v23"/><path id="_x31__x2F_10th_cm._Tick_no._12" class="st5" d="M37.2.5v23"/><path id="_x31__x2F_10th_cm._Tick_no._13" class="st5" d="M40.3.5v23"/><path id="_x31__x2F_10th_cm._Tick_no._14" class="st5" d="M43.4.5v23"/><path id="_x31__x2F_10th_cm._Tick_no._16" class="st5" d="M49.5.5v23"/><path id="_x31__x2F_10th_cm._Tick_no._17" class="st5" d="M52.5.5v23"/><path id="_x31__x2F_10th_cm._Tick_no._18" class="st5" d="M55.6.5v23"/><path id="_x31__x2F_10th_cm._Tick_no._19" class="st5" d="M58.7.5v23"/><path id="_x31__x2F_10th_cm._Tick_no._21" class="st5" d="M64.8.5v23"/><path id="_x31__x2F_10th_cm._Tick_no._22" class="st5" d="M67.9.5v23"/><path id="_x31__x2F_10th_cm._Tick_no._23" class="st5" d="M70.9.5v23"/><path id="_x31__x2F_10th_cm._Tick_no._24" class="st5" d="M74 .5v23"/><path id="_x31__x2F_10th_cm._Tick_no._26" class="st5" d="M80.1.5v23"/><path id="_x31__x2F_10th_cm._Tick_no._27" class="st5" d="M83.2.5v23"/><path id="_x31__x2F_10th_cm._Tick_no._28" class="st5" d="M86.2.5v23"/><path id="_x31__x2F_10th_cm._Tick_no._29" class="st5" d="M89.3.5v23"/><path id="_x31__x2F_10th_cm._Tick_no._31" class="st5" d="M95.4.5v23"/><path id="_x31__x2F_10th_cm._Tick_no._32" class="st5" d="M98.5.5v23"/><path id="_x31__x2F_10th_cm._Tick_no._33" class="st5" d="M101.5.5v23"/><path id="_x31__x2F_10th_cm._Tick_no._34" class="st5" d="M104.6.5v23"/><path id="_x31__x2F_10th_cm._Tick_no._36" class="st5" d="M110.7.5v23"/><path id="_x31__x2F_10th_cm._Tick_no._37" class="st5" d="M113.8.5v23"/><path id="_x31__x2F_10th_cm._Tick_no._38" class="st5" d="M116.8.5v23"/><path id="_x31__x2F_10th_cm._Tick_no._39" class="st5" d="M119.9.5v23"/><path id="_x31__x2F_10th_cm._Tick_no._41" class="st5" d="M126 .5v23"/><path id="_x31__x2F_10th_cm._Tick_no._42" class="st5" d="M129.1.5v23"/><path id="_x31__x2F_10th_cm._Tick_no._43" class="st5" d="M132.1.5v23"/><path id="_x31__x2F_10th_cm._Tick_no._44" class="st5" d="M135.2.5v23"/><path id="_x31__x2F_10th_cm._Tick_no._46" class="st5" d="M141.3.5v23"/><path id="_x31__x2F_10th_cm._Tick_no._47" class="st5" d="M144.4.5v23"/><path id="_x31__x2F_10th_cm._Tick_no._48" class="st5" d="M147.4.5v23"/><path id="_x31__x2F_10th_cm._Tick_no._49" class="st5" d="M150.5.5v23"/></g><path class="st6" d="M.5.5h153.1v53.4H.5z"/><text transform="translate(47.378 51.92)" class="st1 st2">centimeters</text></g></svg>