<svg id="Layer_1" xmlns="http://www.w3.org/2000/svg" viewBox="-162 448.9 65 150"><style>.st0{fill:#010101}.st1{font-family:&amp;apos;MyriadPro-Regular&amp;apos;}.st2{font-size:24px}.st3{stroke-width:.9}.st3,.st4{fill:none;stroke:#000;stroke-miterlimit:10}.st4{stroke-width:.6}.st5{stroke-width:.4}.st5,.st6{fill:none;stroke:#000;stroke-miterlimit:10}.st6{stroke-width:1.5}</style><text id="_x31__cm._label_no._1_3_" transform="translate(-138.816 531.37)" class="st0 st1 st2">1</text><text id="_x31__cm._label_no._1_4_" transform="translate(-138.816 590.37)" class="st0 st1 st2">0</text><text id="_x31__cm._label_no._1_6_" transform="translate(-138.816 471.37)" class="st0 st1 st2">2</text><text transform="rotate(-90 239.34 344.277)" class="st1 st2">y-value (cm)</text><g id="Ruler_1_"><g id="_x31__cm_tick"><path id="_x31__cm._Tick_no._1_1_" class="st3" d="M-160 524.1h20"/></g><g id="_x31__x2F_2_cm_tick_1_"><path id="_x31__x2F_10th_cm._Tick_no._5_1_" class="st4" d="M-160 554.2h15"/><path id="_x31__x2F_10th_cm._Tick_no._15_1_" class="st4" d="M-160 494h15"/></g><g id="_x31__x2F_10th_cm_tick_1_"><path id="_x31__x2F_10th_cm._Tick_no._1_1_" class="st5" d="M-160 578.2h10"/><path id="_x31__x2F_10th_cm._Tick_no._2_1_" class="st5" d="M-160 572.2h10"/><path id="_x31__x2F_10th_cm._Tick_no._3_1_" class="st5" d="M-160 566.2h10"/><path id="_x31__x2F_10th_cm._Tick_no._4_1_" class="st5" d="M-160 560.2h10"/><path id="_x31__x2F_10th_cm._Tick_no._6_1_" class="st5" d="M-160 548.1h10"/><path id="_x31__x2F_10th_cm._Tick_no._7_1_" class="st5" d="M-160 542.1h10"/><path id="_x31__x2F_10th_cm._Tick_no._8_1_" class="st5" d="M-160 536.1h10"/><path id="_x31__x2F_10th_cm._Tick_no._9_1_" class="st5" d="M-160 530.1h10"/><path id="_x31__x2F_10th_cm._Tick_no._11_1_" class="st5" d="M-160 518.1h10"/><path id="_x31__x2F_10th_cm._Tick_no._12_1_" class="st5" d="M-160 512h10"/><path id="_x31__x2F_10th_cm._Tick_no._13_1_" class="st5" d="M-160 506h10"/><path id="_x31__x2F_10th_cm._Tick_no._14_1_" class="st5" d="M-160 500h10"/><path id="_x31__x2F_10th_cm._Tick_no._16_1_" class="st5" d="M-160 488h10"/><path id="_x31__x2F_10th_cm._Tick_no._17_1_" class="st5" d="M-160 481.9h10"/><path id="_x31__x2F_10th_cm._Tick_no._18_1_" class="st5" d="M-160 475.9h10"/><path id="_x31__x2F_10th_cm._Tick_no._19_1_" class="st5" d="M-160 469.9h10"/></g><path class="st6" d="M-140 463.9h-20v120h20"/></g></svg>